<?xml version="1.0" encoding="UTF-8"?>
<svg id="Layer_2" data-name="Layer 2" xmlns="http://www.w3.org/2000/svg" viewBox="0 0 1104.39 112.06">
  <defs>
    <style>
      .cls-1 {
        fill: #231f20;
      }
    </style>
  </defs>
  <g id="Layer_2-2" data-name="Layer 2">
    <g>
      <g>
        <path class="cls-1" d="M521.43,8.63c3.91-1.16,7.97-1.89,13.92-1.89,7.54,0,14.35,2.46,18.56,6.96,4.06,4.35,6.52,10.87,6.52,19.57,0,7.98-1.6,13.05-4.49,17.69-4.93,7.83-13.48,11.89-22.62,11.89-2.32,0-3.91,0-5.65-.29v42.33h-6.23V8.63ZM527.67,57.04c1.45.29,2.9.44,5.22.44,11.74,0,21.02-7.39,21.02-24.07,0-11.02-4.49-21.31-19.14-21.31-3.04,0-5.36.29-7.1.72v44.22Z"/>
        <path class="cls-1" d="M626.68,56.03c0,36.39-12.18,50.02-26.24,50.02-12.61,0-24.79-13.48-24.79-50.02s12.32-50.01,26.53-50.01c12.47,0,24.5,13.34,24.5,50.01ZM582.18,56.03c0,18.85,3.77,44.36,19.14,44.36s18.84-25.51,18.84-44.36-3.77-44.36-18.99-44.36-18.99,25.22-18.99,44.36Z"/>
        <path class="cls-1" d="M646.26,8.63c3.91-1.16,7.97-1.89,13.92-1.89,7.54,0,14.35,2.46,18.56,6.96,4.06,4.35,6.52,10.87,6.52,19.57,0,7.98-1.6,13.05-4.49,17.69-4.93,7.83-13.48,11.89-22.62,11.89-2.32,0-3.91,0-5.65-.29v42.33h-6.23V8.63ZM652.49,57.04c1.45.29,2.9.44,5.22.44,11.74,0,21.02-7.39,21.02-24.07,0-11.02-4.49-21.31-19.14-21.31-3.04,0-5.36.29-7.1.72v44.22Z"/>
        <path class="cls-1" d="M744.26,103c-3.19,1.74-7.83,2.76-13.63,2.76-15.37,0-30.15-12.18-30.15-48.71,0-39.57,18.27-50.74,31.6-50.74,5.36,0,9.42,1.02,11.45,2.32l-2.03,5.51c-2.46-1.16-4.78-2.17-10.44-2.17-10.15,0-24.07,10.73-24.07,43.93s12.32,44.22,24.65,44.22c4.78,0,8.55-1.16,10.87-2.47l1.74,5.36Z"/>
        <path class="cls-1" d="M806.17,56.03c0,36.39-12.18,50.02-26.24,50.02-12.61,0-24.79-13.48-24.79-50.02s12.32-50.01,26.53-50.01c12.47,0,24.5,13.34,24.5,50.01ZM761.66,56.03c0,18.85,3.77,44.36,19.14,44.36s18.84-25.51,18.84-44.36-3.77-44.36-18.99-44.36-18.99,25.22-18.99,44.36Z"/>
        <path class="cls-1" d="M825.74,8.63c3.91-1.45,8.7-1.89,13.19-1.89,9.13,0,15.08,2.32,19.43,6.81,4.2,4.49,6.38,11.02,6.38,18.27,0,13.77-6.38,21.17-16.09,25.66v.29c7.54,1.88,11.6,9.28,13.92,23.48,2.47,14.93,4.06,20.88,5.22,23.63h-6.23c-1.45-3.04-3.19-11.89-5.36-24.64-2.46-14.21-7.39-20.15-18.85-20.15h-5.36v44.79h-6.23V8.63ZM831.98,55.16h5.51c12.03,0,20.73-8.56,20.73-22.18s-5.36-20.88-19.57-20.88c-2.61,0-4.93.15-6.67.58v42.48Z"/>
        <path class="cls-1" d="M884.89,104.88V7.17h6.23l19.72,50.45c4.78,12.32,10,25.51,13.77,37.4h.29c-1.01-18.56-1.01-28.41-1.01-44.65V7.17h5.94v97.71h-6.23l-20.88-53.06c-4.35-10.87-8.41-21.17-12.61-35.52h-.29c1.01,15.08,1.01,25.8,1.01,47.41v41.17h-5.94Z"/>
        <path class="cls-1" d="M1021.02,103c-3.19,1.74-7.83,2.76-13.63,2.76-15.37,0-30.15-12.18-30.15-48.71,0-39.57,18.27-50.74,31.6-50.74,5.36,0,9.42,1.02,11.45,2.32l-2.03,5.51c-2.46-1.16-4.78-2.17-10.44-2.17-10.15,0-24.07,10.73-24.07,43.93s12.32,44.22,24.65,44.22c4.78,0,8.55-1.16,10.87-2.47l1.74,5.36Z"/>
        <path class="cls-1" d="M1082.92,56.03c0,36.39-12.18,50.02-26.24,50.02-12.61,0-24.79-13.48-24.79-50.02s12.32-50.01,26.53-50.01c12.47,0,24.5,13.34,24.5,50.01ZM1038.42,56.03c0,18.85,3.77,44.36,19.14,44.36s18.84-25.51,18.84-44.36-3.77-44.36-18.99-44.36-18.99,25.22-18.99,44.36Z"/>
        <path class="cls-1" d="M1094.24,100.25c0-3.48,2.03-5.94,5.07-5.94,3.33,0,5.07,2.46,5.07,5.94s-1.74,5.8-5.07,5.8c-3.04,0-5.07-2.32-5.07-5.8Z"/>
      </g>
      <g>
        <path class="cls-1" d="M0,90.54V21.53C0,7.91,9.18,0,20.58,0s20.58,7.91,20.58,21.53v5.7h-12.98v-5.7c0-5.86-3.32-8.86-7.6-8.86s-7.6,3.01-7.6,8.86v69.01c0,5.86,3.33,8.86,7.6,8.86s7.6-3.01,7.6-8.86v-5.7h12.98v5.7c0,13.61-9.18,21.53-20.58,21.53S0,104.15,0,90.54Z"/>
        <path class="cls-1" d="M42.73,64.9h5.06V21.53C47.8,7.91,56.98,0,68.38,0s20.58,7.91,20.58,21.53v89.9h-12.98v-33.87h-15.19v33.87h-12.98v-33.87h-5.06v-12.66ZM75.97,64.9V21.53c0-5.86-3.32-8.86-7.6-8.86s-7.6,3.01-7.6,8.86v43.37h15.19Z"/>
        <path class="cls-1" d="M97.81,90.54v-5.7h12.98v5.7c0,5.86,3.33,8.86,7.6,8.86s7.6-3.01,7.6-8.86v-10.6c0-4.43-1.9-6.49-6.33-6.65l-4.59-.16c-10.45-.32-17.25-4.91-17.25-17.73V21.53c0-13.61,9.18-21.53,20.58-21.53s20.58,7.91,20.58,21.53v5.7h-12.98v-5.7c0-5.86-3.32-8.86-7.6-8.86s-7.6,3.01-7.6,8.86v30.07c0,6.33,2.22,8.23,6.81,8.55l5.7.32c9.97.47,15.67,6.65,15.67,17.73v12.35c0,13.61-9.18,21.53-20.58,21.53s-20.58-7.91-20.58-21.53Z"/>
        <path class="cls-1" d="M142.45,64.9h5.06V21.53c0-13.61,9.18-21.53,20.58-21.53s20.58,7.91,20.58,21.53v89.9h-12.98v-33.87h-15.19v33.87h-12.98v-33.87h-5.06v-12.66ZM175.69,64.9V21.53c0-5.86-3.32-8.86-7.6-8.86s-7.6,3.01-7.6,8.86v43.37h15.19Z"/>
        <path class="cls-1" d="M220.63,0c11.4,0,20.58,7.91,20.58,21.53v34.51c0,7.6-2.53,12.98-7.75,15.51,5.06,2.53,7.75,8.23,7.75,16.94,0,16.15-9.18,22.95-20.58,22.95h-20.58v-33.87h-5.06v-12.66h5.06V21.53c0-13.61,9.18-21.53,20.58-21.53ZM220,64.9c4.59,0,8.23-3.01,8.23-8.86V21.53c0-5.86-3.32-8.86-7.6-8.86s-7.6,3.01-7.6,8.86v43.37h6.96ZM228.23,88c0-8.39-3.64-10.45-8.23-10.45h-6.96v21.21h6.96c4.59,0,8.23-2.06,8.23-10.76Z"/>
        <path class="cls-1" d="M250.71.63h12.98v98.13h20.89v12.66h-33.87V.63Z"/>
        <path class="cls-1" d="M285.85,64.9h5.06V21.53c0-13.61,9.18-21.53,20.58-21.53s20.58,7.91,20.58,21.53v89.9h-12.98v-33.87h-15.19v33.87h-12.98v-33.87h-5.06v-12.66ZM319.08,64.9V21.53c0-5.86-3.32-8.86-7.6-8.86s-7.6,3.01-7.6,8.86v43.37h15.19Z"/>
        <path class="cls-1" d="M362.77,0c11.4,0,20.58,7.91,20.58,21.53v89.9h-12.98V21.53c0-5.86-3.32-8.86-7.6-8.86s-7.6,3.01-7.6,8.86v89.9h-12.98V21.53c0-13.61,9.18-21.53,20.58-21.53Z"/>
        <path class="cls-1" d="M392.52,90.54V21.53c0-13.61,9.18-21.53,20.58-21.53s20.58,7.91,20.58,21.53v5.7h-12.98v-5.7c0-5.86-3.32-8.86-7.6-8.86s-7.6,3.01-7.6,8.86v69.01c0,5.86,3.33,8.86,7.6,8.86s7.6-3.01,7.6-8.86v-5.7h12.98v5.7c0,13.61-9.18,21.53-20.58,21.53s-20.58-7.91-20.58-21.53Z"/>
        <path class="cls-1" d="M435.26,64.9h5.07V21.53c0-13.61,9.18-21.53,20.58-21.53s20.58,7.91,20.58,21.53v89.9h-12.98v-33.87h-15.2v33.87h-12.98v-33.87h-5.07v-12.66ZM468.5,64.9V21.53c0-5.86-3.33-8.86-7.6-8.86s-7.6,3.01-7.6,8.86v43.37h15.2Z"/>
      </g>
    </g>
  </g>
</svg>